<?xml version="1.0" standalone="no"?>
<!DOCTYPE svg PUBLIC "-//W3C//DTD SVG 20010904//EN"
 "http://www.w3.org/TR/2001/REC-SVG-20010904/DTD/svg10.dtd">
<svg version="1.0" xmlns="http://www.w3.org/2000/svg"
 width="287.000000pt" height="287.000000pt" viewBox="0 0 287.000000 287.000000"
 preserveAspectRatio="xMidYMid meet">

<g transform="translate(0.000000,287.000000) scale(0.100000,-0.100000)"
fill="#000000" stroke="none">
<path d="M1295 2830 c-513 -57 -954 -387 -1146 -856 -276 -677 14 -1448 668
-1773 386 -192 830 -195 1226 -7 265 126 518 380 645 648 91 192 135 387 135
603 0 225 -45 420 -144 618 -72 145 -140 239 -264 363 -204 205 -432 327 -714
383 -116 24 -297 33 -406 21z m91 -71 c115 -75 274 -239 366 -379 262 -398
406 -911 458 -1625 13 -184 12 -437 -2 -380 -88 362 -125 504 -164 625 -133
419 -296 737 -468 917 -72 76 -138 124 -151 111 -6 -5 -453 -973 -645 -1393
-106 -232 -139 -301 -140 -288 0 7 18 81 39 165 22 84 80 311 130 503 95 369
315 1223 382 1485 81 313 80 310 99 310 10 0 53 -23 96 -51z"/>
</g>
</svg>
