<?xml version="1.0" standalone="no"?>
<!DOCTYPE svg PUBLIC "-//W3C//DTD SVG 20010904//EN"
 "http://www.w3.org/TR/2001/REC-SVG-20010904/DTD/svg10.dtd">
<svg version="1.0" xmlns="http://www.w3.org/2000/svg"
 width="750.000000pt" height="450.000000pt" viewBox="0 0 750.000000 450.000000"
 preserveAspectRatio="xMidYMid meet">

<g transform="translate(0.000000,450.000000) scale(0.100000,-0.100000)"
fill="#000000" stroke="none">
<path d="M2223 3419 c-279 -32 -534 -229 -637 -490 -82 -206 -74 -450 19 -642
101 -208 277 -356 500 -422 77 -23 109 -27 215 -27 153 -1 239 20 371 88 158
82 310 249 370 407 l24 62 3 -277 2 -278 25 0 25 0 2 719 3 720 385 -506 c212
-279 389 -507 394 -507 5 -1 175 222 378 494 203 272 375 504 384 515 13 18
14 -57 9 -707 -3 -399 -2 -728 2 -731 4 -2 50 -2 101 1 l92 4 0 389 0 388 293
3 c272 3 295 4 337 24 90 42 140 119 148 225 8 121 -32 193 -137 243 l-66 31
-362 3 -363 3 0 115 0 114 350 0 c371 0 435 -6 556 -51 79 -30 168 -93 210
-150 55 -75 76 -140 82 -250 12 -238 -84 -420 -267 -508 l-76 -36 -217 -3
-218 -4 0 -269 0 -269 25 0 25 0 0 255 c0 197 3 255 13 256 6 0 102 4 212 8
l200 7 64 33 c179 92 271 257 271 486 0 225 -81 365 -262 455 -139 68 -174 72
-598 77 l-375 5 -404 -541 c-222 -298 -406 -541 -410 -541 -4 0 -191 242 -416
537 l-410 538 -5 -325 -5 -325 -372 -3 c-364 -2 -373 -3 -373 -22 0 -19 9 -20
368 -22 l367 -3 -1 -105 c-2 -126 -21 -205 -75 -315 -96 -195 -268 -335 -484
-396 -100 -28 -265 -31 -367 -6 -145 35 -276 113 -379 225 -80 87 -123 157
-163 269 -30 84 -31 95 -31 243 0 148 1 159 31 243 45 125 87 190 189 292 134
135 280 202 473 220 62 6 72 10 72 26 0 21 -3 21 -117 8z m3278 -457 c38 -43
40 -102 4 -137 l-24 -25 -371 0 -370 0 0 100 0 101 366 -3 366 -3 29 -33z"/>
<path d="M2197 3134 c-285 -69 -440 -350 -358 -649 39 -141 89 -220 174 -279
69 -48 146 -73 260 -87 165 -21 283 16 386 118 63 64 119 165 128 232 l6 41
-232 0 -231 0 0 -80 0 -80 100 0 c59 0 100 -4 100 -10 0 -5 -19 -20 -42 -32
-36 -19 -58 -23 -138 -23 -88 0 -101 3 -162 33 -80 39 -140 102 -165 175 -25
72 -24 204 2 276 38 104 152 197 266 216 l39 7 0 79 0 79 -37 -1 c-21 0 -64
-7 -96 -15z"/>
<path d="M3330 2192 l0 -352 75 0 74 0 3 109 3 110 85 -109 85 -109 93 -1 c72
0 92 3 86 13 -13 22 -476 662 -490 677 -12 12 -14 -41 -14 -338z"/>
<path d="M4280 2243 c-118 -164 -232 -321 -253 -350 l-38 -53 94 0 93 0 85
108 84 107 3 -107 3 -108 74 0 75 0 0 350 c0 193 -1 350 -3 350 -1 0 -99 -134
-217 -297z"/>
<path d="M4697 1568 c-87 -24 -147 -123 -147 -243 0 -130 61 -223 161 -244
168 -36 286 88 265 281 -10 97 -46 162 -108 194 -36 19 -125 25 -171 12z m159
-69 c45 -42 57 -77 58 -169 1 -134 -42 -198 -141 -207 -39 -4 -55 0 -82 19
-59 40 -76 80 -76 183 0 77 4 96 24 132 31 55 71 75 139 70 38 -3 59 -10 78
-28z"/>
<path d="M1220 1325 l0 -245 30 0 30 0 0 245 0 245 -30 0 -30 0 0 -245z"/>
<path d="M1410 1325 l0 -245 25 0 25 0 2 204 3 203 120 -203 c110 -188 122
-204 147 -204 l28 0 0 245 0 245 -25 0 -25 0 0 -197 0 -198 -118 197 c-113
192 -118 197 -149 198 l-33 0 0 -245z"/>
<path d="M1850 1545 c0 -24 2 -25 75 -25 l75 0 0 -220 0 -220 25 0 25 0 0 220
0 220 75 0 c73 0 75 1 75 25 l0 25 -175 0 -175 0 0 -25z"/>
<path d="M2290 1325 l0 -245 145 0 145 0 0 25 0 25 -120 0 -120 0 0 90 0 90
90 0 c89 0 90 0 90 25 0 25 -1 25 -90 25 l-90 0 0 80 0 80 120 0 120 0 0 25 0
25 -145 0 -145 0 0 -245z"/>
<path d="M2690 1325 l0 -245 25 0 25 0 0 105 0 105 49 0 49 0 62 -105 c56 -96
63 -105 90 -105 17 0 30 2 30 4 0 2 -27 50 -60 106 -33 56 -60 105 -60 109 0
4 11 13 25 19 62 28 84 130 42 193 -30 45 -71 58 -184 58 l-93 1 0 -245z m215
170 c19 -18 25 -35 25 -65 0 -30 -6 -47 -25 -65 -21 -22 -33 -25 -95 -25 l-70
0 0 90 0 90 70 0 c62 0 74 -3 95 -25z"/>
<path d="M3110 1325 l0 -245 25 0 25 0 2 205 3 206 120 -203 c114 -192 122
-203 150 -203 l30 0 3 243 2 242 -30 0 -30 0 -2 -190 -3 -190 -115 190 c-111
184 -116 190 -147 190 l-33 0 0 -245z"/>
<path d="M3637 1333 c-48 -131 -87 -241 -87 -245 0 -5 11 -8 24 -8 20 0 27 10
48 68 l25 67 100 3 100 3 25 -68 c21 -59 28 -68 51 -71 15 -2 27 1 27 7 0 8
-136 390 -165 464 -4 10 -18 17 -34 17 -27 0 -30 -7 -114 -237z m152 47 c17
-46 31 -90 31 -97 0 -10 -20 -13 -75 -13 -41 0 -75 3 -75 8 0 4 17 53 37 109
23 62 40 98 44 90 4 -7 22 -51 38 -97z"/>
<path d="M3950 1545 c0 -24 2 -25 75 -25 l75 0 0 -220 0 -220 30 0 30 0 0 220
0 219 73 3 c66 3 72 5 75 26 l3 22 -180 0 -181 0 0 -25z"/>
<path d="M4390 1325 l0 -245 30 0 30 0 0 245 0 245 -30 0 -30 0 0 -245z"/>
<path d="M5080 1325 l0 -245 25 0 25 0 0 208 0 207 123 -207 c111 -190 124
-208 150 -208 l27 0 0 245 0 245 -25 0 -25 0 -2 -192 -3 -191 -115 191 c-111
186 -116 192 -147 192 l-33 0 0 -245z"/>
<path d="M5687 1558 c-54 -144 -167 -458 -167 -467 0 -6 11 -11 24 -11 22 0
28 9 47 70 l23 70 101 0 101 0 24 -67 c22 -59 29 -68 53 -71 15 -2 27 0 27 5
0 4 -39 115 -86 246 -85 231 -87 237 -114 237 -15 0 -30 -6 -33 -12z m68 -172
c19 -53 35 -101 35 -106 0 -6 -34 -10 -75 -10 -41 0 -75 4 -75 9 0 15 72 212
76 208 2 -2 19 -47 39 -101z"/>
<path d="M6000 1325 l0 -245 140 0 140 0 0 25 0 25 -110 0 -110 0 0 220 0 220
-30 0 -30 0 0 -245z"/>
</g>
</svg>
